<svg xmlns="http://www.w3.org/2000/svg" viewBox="0 0 343.967 343.967"><path d="M301.294 186.876c14.022-11.025 28.566-46.167-14.403-56.316-30.89-7.234-51.612 14.773-66.31-17.574-13.46-29.648 28.068-83.43-17.16-108.808-16.65-9.36-31.963-3.416-30.353 22.16 3.03 51.257-27.95 58.59-50.964 106.523-21.985 12.85-39.88 19.907-61.945 33.047l-31.65.332v149.05H57.91l22.696 6.63c34.8 18.236 77.73 22.05 107.612 22.05 17.992 0 54.276-1.698 66.09-11.15 13.396-10.72 17.27-27.914 18.455-35.12 23.35-9.367 29.578-28.9 21.022-50.035 10.095-5.56 16.366-12.988 18.645-22.077 4.674-18.504-7.656-32.68-11.137-38.71z" fill="#010002"/></svg>