<svg xmlns="http://www.w3.org/2000/svg" viewBox="0 0 32.738 32.738"><path d="M31.917 17.595c-.91-.69-2.213-.52-2.91.396-.066.1-.12.19-.174.29l-5.095-.86c.048-.35.08-.71.08-1.072 0-1.48-.412-2.863-1.118-4.053l3.248-2.1c.207.14.46.215.728.19.618-.057 1.072-.6 1.018-1.22-.056-.62-.603-1.072-1.22-1.017s-1.072.6-1.018 1.22c.005.06.02.116.033.18l-3.23 2.08c-.65-.87-1.46-1.605-2.4-2.15l2.32-3.665c.244.04.51.003.74-.132.534-.31.72-.995.41-1.53-.31-.54-.998-.726-1.535-.414-.537.31-.72.997-.41 1.536.03.053.063.1.103.146L19.16 9.1c-.79-.362-1.644-.605-2.546-.69l.474-2.8c.182-.044.35-.135.47-.29.274-.365.207-.882-.156-1.156-.363-.278-.88-.207-1.157.155-.274.36-.205.88.156 1.15.04.02.08.03.12.05l-.49 2.86c-.06-.003-.116-.01-.176-.01-1.034 0-2.02.202-2.922.562L10.7 4.83c.217-.275.35-.62.344-.997-.015-.873-.73-1.57-1.603-1.552-.87.02-1.56.73-1.55 1.61.01.87.73 1.56 1.6 1.55.09 0 .17-.015.258-.03l2.182 4.01c-1.093.62-2.025 1.49-2.716 2.53L5.946 9.39c.065-.24.053-.504-.055-.75-.25-.565-.914-.818-1.48-.563-.57.254-.82.92-.566 1.486.26.564.923.816 1.49.56.054-.024.104-.06.154-.09l3.32 2.605c-.49.937-.8 1.982-.884 3.096l-4.898-.006c-.136-.322-.375-.605-.71-.78-.77-.406-1.725-.112-2.13.66-.403.77-.107 1.725.66 2.13.77.407 1.727.11 2.133-.662.04-.073.066-.15.094-.232l4.846.012c.04.63.145 1.246.324 1.832l-3.13 1.207c-.17-.18-.405-.304-.673-.336-.61-.07-1.17.37-1.24.98-.07.615.37 1.177.99 1.245.616.07 1.17-.376 1.24-.99.008-.06.007-.118.006-.18l3.084-1.19c.61 1.45 1.64 2.682 2.936 3.54l-1.51 1.56c-.232-.09-.496-.105-.75-.02-.593.196-.91.83-.717 1.416.19.59.83.914 1.416.723.59-.2.91-.835.72-1.426-.02-.056-.045-.11-.07-.165l1.62-1.67c.77.408 1.614.688 2.51.82l-.43 4.04c-.246.057-.475.193-.64.4-.38.493-.29 1.195.2 1.58.49.38 1.196.29 1.58-.2.376-.494.285-1.197-.206-1.58-.05-.033-.1-.06-.15-.093l.434-4.068c.136.01.27.02.408.02 1.037 0 2.02-.202 2.93-.56l.806 3.58c-.2.145-.36.353-.43.614-.16.6.19 1.212.79 1.373.6.156 1.217-.194 1.377-.796.16-.6-.196-1.216-.796-1.377-.057-.013-.115-.02-.176-.026l-.83-3.707c.58-.3 1.11-.67 1.597-1.104l1.104 1.55c-.1.154-.15.336-.126.535.06.448.476.766.93.708.45-.063.766-.48.706-.93-.062-.453-.48-.768-.93-.707-.043.006-.076.03-.116.04l-1.15-1.6c.837-.854 1.478-1.896 1.863-3.06l5.24.89c.11.45.36.87.754 1.167.913.693 2.216.52 2.91-.395.693-.91.515-2.214-.398-2.91zm-18.54-1.626c-.655 0-1.19-.54-1.19-1.2 0-.66.535-1.19 1.19-1.19.658 0 1.192.53 1.192 1.19 0 .66-.54 1.19-1.2 1.19zm3.07 2.58c-.48 0-.873-.39-.873-.876s.392-.875.874-.875c.483 0 .875.387.875.874 0 .484-.392.873-.875.873zm3.247-3.706c-.712 0-1.29-.577-1.29-1.287 0-.715.578-1.293 1.29-1.293s1.29.58 1.29 1.295c0 .71-.577 1.286-1.29 1.286z" fill="#010002"/></svg>