<svg xmlns="http://www.w3.org/2000/svg" viewBox="0 0 197.244 197.244"><path d="M133.88 197.244c-23.1-2.466-41.05-21.728-40.863-44.897.185-22.853 18.098-41.724 40.863-44.152v89.05zm10-89.05v89.047c22.765-2.424 40.677-21.295 40.862-44.15.188-23.17-17.762-42.43-40.862-44.894zM66.487 38.056L27.524 64.552c-7.577 5.152-12.693 12.946-14.408 21.946s.18 18.13 5.33 25.706l1.777 2.612c6.394 9.403 17.008 15.017 28.394 15.017 6.885 0 13.544-2.054 19.26-5.94L106.84 97.4 66.487 38.056zm96.662-20.43l-1.78-2.61C154.98 5.613 144.365 0 132.98 0c-6.885 0-13.545 2.054-19.26 5.94L74.758 32.433l40.35 59.34 38.965-26.494c15.64-10.637 19.712-32.01 9.077-47.655z"/></svg>