<svg xmlns="http://www.w3.org/2000/svg" viewBox="0 0 184 184"><path d="M160.324 38.56h-3.574v-5.678c0-1.38-1.12-2.5-2.5-2.5h-14c-1.38 0-2.5 1.12-2.5 2.5v5.678h-12.417v-6.34c0-9.695-7.887-17.582-17.58-17.582H76.246c-9.694 0-17.58 7.887-17.58 17.58v6.342H46.25v-5.678c0-1.38-1.12-2.5-2.5-2.5h-14c-1.38 0-2.5 1.12-2.5 2.5v5.678h-3.574C10.6 38.56 0 49.16 0 62.236v83.45c0 13.076 10.6 23.676 23.676 23.676h136.648c13.076 0 23.676-10.6 23.676-23.676v-83.45c0-13.076-10.6-23.676-23.676-23.676zm-91.658-6.34c0-4.18 3.4-7.582 7.58-7.582h31.506c4.18 0 7.58 3.4 7.58 7.58v6.342H68.667v-6.34zM92 146.605c-23.552 0-42.645-19.093-42.645-42.645S68.448 61.317 92 61.317s42.645 19.093 42.645 42.645S115.552 146.607 92 146.607zm32.015-32.172c0 .663-.262 1.3-.73 1.77-.47.468-1.104.732-1.767.733l-16.515.015v16.514c0 1.38-1.12 2.5-2.5 2.5H81.497c-1.38 0-2.5-1.12-2.5-2.5v-16.49l-16.49.015h-.002c-.662 0-1.297-.262-1.766-.73-.47-.468-.734-1.103-.735-1.766l-.02-21.005c0-1.382 1.118-2.502 2.5-2.503l16.513-.015V74.456c0-1.38 1.12-2.5 2.5-2.5h21.005c1.38 0 2.5 1.12 2.5 2.5v16.49l16.49-.015h.002c1.38 0 2.5 1.12 2.5 2.5l.02 21.004z"/></svg>