<svg xmlns="http://www.w3.org/2000/svg" viewBox="0 0 92 92"><path d="M45.386.004C19.983.344-.334 21.214.006 46.62c.34 25.392 21.208 45.714 46.61 45.376 25.398-.342 45.718-21.213 45.38-46.615-.34-25.39-21.21-45.71-46.61-45.37zM45.25 74l-.254-.004c-3.912-.116-6.67-2.998-6.56-6.852.11-3.788 2.935-6.538 6.718-6.538l.227.004c4.03.12 6.75 2.972 6.64 6.937-.11 3.8-2.89 6.453-6.76 6.453zm16.455-32.66c-.92 1.308-2.943 2.93-5.492 4.917l-2.807 1.938c-1.54 1.198-2.47 2.325-2.82 3.434-.275.87-.41 1.1-.434 2.88l-.004.45H39.43l.03-.91c.132-3.73.224-5.92 1.77-7.74 2.423-2.847 7.77-6.29 7.997-6.436.766-.577 1.412-1.234 1.893-1.936 1.125-1.55 1.623-2.773 1.623-3.973 0-1.665-.494-3.205-1.47-4.576-.94-1.323-2.724-1.993-5.304-1.993-2.56 0-4.32.81-5.36 2.48-1.08 1.712-1.63 3.51-1.63 5.35v.46H27.93l.02-.48c.285-6.77 2.7-11.645 7.178-14.49C37.948 18.92 41.448 18 45.53 18c5.347 0 9.86 1.3 13.413 3.86 3.6 2.597 5.426 6.485 5.426 11.557 0 2.837-.9 5.502-2.67 7.924z" fill="#030104"/></svg>