<svg xmlns="http://www.w3.org/2000/svg" viewBox="0 0 304.895 304.895"><g fill="#010002"><path d="M152.448 93.948c-20.305 0-36.828 16.522-36.828 36.828 0 11.79 5.794 22.937 15.496 29.822l2.512 1.784V207.6c0 1.837 1.492 3.334 3.33 3.334h30.98c1.837 0 3.334-1.498 3.334-3.335v-45.22l2.512-1.785c9.696-6.88 15.49-18.032 15.49-29.822-.005-20.305-16.527-36.828-36.826-36.828z"/><path d="M152.448 0C68.386 0 0 68.386 0 152.448s68.386 152.448 152.448 152.448 152.448-68.386 152.448-152.448S236.51 0 152.448 0zM183.2 168.42v39.18c0 8.418-6.843 15.268-15.268 15.268h-30.98c-8.42 0-15.263-6.844-15.263-15.27V168.42c-11.328-9.193-18.01-23.042-18.01-37.643 0-26.887 21.874-48.76 48.76-48.76s48.755 21.874 48.755 48.76c.006 14.6-6.67 28.456-17.996 37.645z"/></g></svg>