<svg xmlns="http://www.w3.org/2000/svg" width="45.957" height="45.956" viewBox="0 0 45.957 45.956"><path d="M32.95 0C26.24 0 20.78 5.456 20.78 12.164S26.24 24.33 32.95 24.33c6.706 0 12.163-5.458 12.163-12.166S39.656 0 32.95 0zm0 20.025c-4.337 0-7.862-3.527-7.862-7.86s3.525-7.86 7.86-7.86c4.333 0 7.86 3.525 7.86 7.86s-3.525 7.86-7.86 7.86z"/><path d="M33.592 6.26c-.04-.294-.27-.538-.578-.578-.37-.05-.705.21-.753.578l-.77 5.905v.037c-.005.037-.008.074-.008.11 0 .02-.002.038 0 .057 0 .042.003.086.01.132v.038c.097.743.74 1.28 1.476 1.26.048-.002.097-.006.146-.014l5.903-.768c.294-.04.54-.272.58-.58.048-.368-.212-.705-.58-.752l-4.8-.626-.625-4.8z"/><circle cx="32.947" cy="17.572" r="1.081"/><circle cx="27.414" cy="12.165" r="1.081"/><circle cx="10.588" cy="7.244" r="4.321"/><path d="M21.528 27.63l-8.305-11.86v-.317c0-1.54-1.33-2.768-2.9-2.61-1.367.136-2.36 1.387-2.36 2.76v14.606c0 1.448 1.175 2.634 2.624 2.634h8.756c2.152 0 3.9 1.734 3.9 3.887v6.452c0 1.373.995 2.625 2.36 2.76 1.572.158 2.902-1.07 2.902-2.61V35.4c0-4.034-3.056-7.353-6.977-7.77zm-8.305-4.538l3.134 4.488h-2.782c-.194 0-.352-.156-.352-.352v-4.136z"/><path d="M17.973 35.05h-8.24c-2.016 0-3.667-1.65-3.667-3.667v-8.48c0-1.54-1.31-2.77-2.882-2.612-1.366.137-2.34 1.388-2.34 2.762v9.767c0 4.12 3.332 7.453 7.456 7.453h7.188c.346 0 .64.29.64.636v2.273c0 1.373.974 2.623 2.34 2.76 1.57.156 2.882-1.072 2.882-2.61v-4.91c-.002-1.872-1.506-3.374-3.377-3.374z"/></svg>