<svg xmlns="http://www.w3.org/2000/svg" width="23.302" height="23.303" viewBox="0 0 23.302 23.303"><path d="M6.467 15.585H2.012c-.792 0-1.444.73-1.444 1.625v4.468c0 .895.652 1.625 1.444 1.625h4.455c.792 0 1.44-.73 1.44-1.625V17.21c.002-.896-.648-1.625-1.44-1.625zM4.237 15.132c1.537 0 2.778-1.24 2.778-2.774S5.775 9.58 4.237 9.58c-1.533 0-2.772 1.243-2.772 2.775 0 1.536 1.24 2.777 2.772 2.777zM21.29 15.585H16.84c-.79 0-1.44.73-1.44 1.625v4.468c0 .895.65 1.625 1.44 1.625h4.453c.796 0 1.445-.73 1.445-1.625V17.21c0-.896-.65-1.625-1.444-1.625zM16.29 12.357c0 1.533 1.24 2.774 2.77 2.774 1.537 0 2.78-1.24 2.78-2.773s-1.243-2.775-2.78-2.775c-1.53 0-2.77 1.24-2.77 2.775zM12.185 8.647c3.466-.175 6.195-2.038 6.195-4.314C18.38 1.94 15.367 0 11.65 0S4.923 1.94 4.923 4.332c0 1.985 2.076 3.654 4.904 4.167L8.504 10.93l3.68-2.285z"/></svg>