<svg xmlns="http://www.w3.org/2000/svg" viewBox="0 0 343.967 343.967"><path d="M301.294 186.876c14.022-11.025 28.566-46.167-14.403-56.316-30.893-7.234-51.616 14.773-66.312-17.574-13.462-29.648 28.066-83.43-17.16-108.808-16.65-9.36-31.965-3.416-30.355 22.16 3.03 51.257-27.95 58.59-50.964 106.523-21.986 12.848-39.88 19.903-61.946 33.043l-31.65.332v149.052h29.404l22.697 6.63c34.8 18.237 77.73 22.05 107.612 22.05 17.992 0 54.276-1.697 66.09-11.15 13.396-10.72 17.27-27.913 18.455-35.12 23.35-9.366 29.578-28.898 21.022-50.034 10.095-5.56 16.366-12.988 18.645-22.077 4.675-18.504-7.655-32.68-11.136-38.71z" fill="#010002"/></svg>