<svg xmlns="http://www.w3.org/2000/svg" viewBox="0 0 32.738 32.738"><path d="M31.917 17.595c-.91-.69-2.213-.52-2.91.396-.066.094-.12.19-.174.286l-5.095-.863c.048-.353.08-.71.08-1.075 0-1.48-.412-2.863-1.118-4.053l3.248-2.1c.207.14.46.215.728.19.618-.057 1.072-.6 1.018-1.22-.056-.62-.603-1.072-1.22-1.017s-1.072.603-1.018 1.22c.005.063.02.118.033.18L22.26 11.62c-.644-.87-1.454-1.604-2.393-2.15l2.317-3.663c.247.04.51.003.742-.132.535-.312.72-.996.408-1.532-.31-.54-.997-.725-1.534-.413-.536.31-.72.997-.41 1.536.03.053.064.1.104.146L19.163 9.1c-.79-.362-1.645-.605-2.547-.69l.474-2.8c.182-.044.35-.135.47-.29.274-.365.207-.882-.156-1.156-.363-.278-.88-.207-1.157.155-.274.36-.205.88.156 1.155.035.023.076.032.112.055l-.484 2.853c-.06-.002-.118-.01-.178-.01-1.034 0-2.02.203-2.922.563L10.695 4.83c.217-.275.35-.62.344-.997-.015-.873-.73-1.57-1.603-1.552-.87.015-1.564.73-1.55 1.602.012.87.728 1.562 1.6 1.55.087-.002.17-.017.253-.03l2.184 4.012c-1.092.617-2.024 1.488-2.715 2.53l-3.264-2.56c.065-.24.053-.503-.055-.75-.254-.564-.917-.817-1.483-.562-.568.254-.82.92-.566 1.486.258.564.922.816 1.488.562.055-.026.105-.06.155-.092L8.8 12.635c-.49.937-.8 1.982-.885 3.096l-4.895-.008c-.137-.322-.376-.605-.71-.78-.77-.406-1.726-.112-2.13.66-.404.77-.108 1.725.66 2.13.77.407 1.726.11 2.132-.662.04-.075.067-.153.095-.234l4.845.012c.04.63.146 1.247.325 1.833l-3.13 1.207c-.174-.18-.408-.303-.676-.335-.615-.07-1.17.372-1.24.986-.072.616.37 1.178.987 1.246.615.07 1.17-.374 1.24-.99.007-.06.006-.116.005-.18l3.084-1.19c.61 1.45 1.64 2.684 2.937 3.543l-1.512 1.56c-.232-.088-.496-.105-.75-.02-.593.196-.91.83-.717 1.416.193.59.83.913 1.418.722.59-.198.91-.833.718-1.424-.02-.057-.045-.11-.072-.166l1.62-1.67c.77.407 1.616.687 2.51.82l-.43 4.04c-.244.056-.473.192-.64.4-.38.492-.29 1.194.2 1.578.493.38 1.198.29 1.58-.2.378-.493.287-1.196-.204-1.58-.048-.032-.1-.06-.15-.092l.434-4.068c.136.01.27.02.408.02 1.035 0 2.02-.202 2.93-.56l.804 3.58c-.2.145-.36.353-.43.614-.16.6.192 1.215.793 1.376.6.157 1.217-.193 1.377-.795.16-.6-.196-1.215-.796-1.376-.058-.015-.116-.02-.177-.028l-.832-3.706c.58-.3 1.112-.67 1.598-1.103l1.102 1.552c-.1.156-.15.338-.125.537.06.448.477.766.93.708.452-.063.767-.48.707-.93-.062-.453-.48-.768-.93-.707-.043.006-.076.028-.116.04L21.55 21.9c.837-.853 1.478-1.895 1.863-3.06l5.24.89c.11.45.357.87.752 1.168.913.693 2.216.52 2.91-.395.693-.91.515-2.213-.398-2.908zm-18.54-1.626c-.655 0-1.19-.535-1.19-1.195 0-.657.535-1.188 1.19-1.188.658 0 1.192.53 1.192 1.188 0 .66-.534 1.194-1.193 1.194zm3.07 2.587c-.48 0-.873-.392-.873-.873 0-.486.392-.875.874-.875.483 0 .875.387.875.874 0 .484-.392.873-.875.873zm3.247-3.703c-.712 0-1.29-.577-1.29-1.287 0-.715.578-1.293 1.29-1.293s1.29.578 1.29 1.293c0 .71-.577 1.287-1.29 1.287z" fill="#010002"/></svg>