<svg xmlns="http://www.w3.org/2000/svg" viewBox="0 0 58.329 58.329"><g fill="#010002"><circle cx="24.752" cy="5.876" r="5.876"/><path d="M49.48 27.865c-.554-3.585-1.165-6.603-3.63-9.395-3.246-3.68-8.568-5.437-13.148-6.697l-.02-.028c-3.27-.85-7.55 1.283-7.64 1.386-.103.035-1.145.508-1.792 1.514-.19.142-.375.315-.55.533-5.662 7.056-4.39 15.234-.45 22.833.67 1.29 1.836 1.616 2.906 1.35-1.046 4.806-2.02 10.517-1.838 14.557.227 5.062 8.115 5.086 7.887 0-.285-6.36.524-12.46 2.59-18.39.37.166.757.3 1.152.396.36 6.65 1.39 13.228 3.327 19.642 1.468 4.854 9.08 2.782 7.604-2.1-2.214-7.326-3.152-14.728-3.204-22.37-.004-.584-.364-2.285-.446-2.655-.404-1.85-.98-3.62-1.698-5.318l-2.148-3.114c1.02.56 1.988 1.2 2.87 1.98 2.157 1.91 2.285 4.73 2.698 7.406.563 3.642 6.09 2.088 5.53-1.53zM26.51 33.69c-1.81-3.92-2.87-8.313-1.118-12.214.25.295.482.6.717.9 1.29 2.21 1.337 7.864 1.337 7.864s-.393 1.346-.937 3.45zM20.083 41.463c-.04-.008-.078-.007-.116.002-.09.022-.165.097-.188.192-.172.78-.466 1.604-.863 2.406-.042-.135-.083-.27-.116-.396-.024-.104-.11-.18-.216-.19-.104-.013-.205.04-.255.132-.563 1.044-1.337 2.4-2.327 3.63-.09.11-.072.27.038.36.11.09.272.07.36-.04.853-1.06 1.545-2.2 2.086-3.172.043.14.085.277.12.41.026.102.11.178.215.188.103.016.205-.035.257-.127.567-1.02.982-2.087 1.203-3.097.03-.135-.058-.27-.197-.3z"/><path d="M21.048 37.6c-.157-.06-.34-.036-.478.085-1.075.96-2.376 1.844-3.804 2.594.08-.24.16-.48.25-.7.07-.178.024-.376-.114-.508-.14-.13-.342-.16-.514-.076-1.928.926-4.492 2.085-7.237 2.826-.244.064-.39.318-.324.563.067.246.32.392.566.324 2.362-.64 4.584-1.574 6.398-2.416-.083.25-.167.495-.258.727-.07.175-.026.376.112.505.135.13.336.164.508.084 1.903-.882 3.643-2 5.03-3.237.19-.168.207-.46.04-.65-.05-.058-.11-.098-.174-.122z"/></g></svg>