<svg xmlns="http://www.w3.org/2000/svg" width="31.979" height="31.979" viewBox="0 0 31.979 31.979"><path d="M21.945 6.06v-.7c0-.797-.646-1.442-1.44-1.442h-2.366c.196-.356.308-.797.308-1.245 0-1.473-1.2-2.673-2.67-2.673-1.473 0-2.67 1.2-2.67 2.673 0 .448.112.89.31 1.245h-1.94c-.797 0-1.442.645-1.442 1.44v.702H6.822c-1.207 0-2.185.98-2.185 2.186v21.546c0 1.207.978 2.187 2.185 2.187h18.334c1.207 0 2.186-.98 2.186-2.188V8.246c0-1.207-.98-2.186-2.186-2.186h-3.21zm-7.758-3.386c0-.878.713-1.594 1.59-1.594.877 0 1.59.716 1.59 1.594 0 .502-.234.933-.6 1.245h-1.98c-.366-.314-.6-.744-.6-1.246zm10.97 25.818c0 .742-.603 1.344-1.345 1.344H8.166c-.742 0-1.344-.602-1.344-1.344V9.59c0-.743.602-1.344 1.344-1.344h1.868c0 .59.48 1.07 1.07 1.07h9.77c.59 0 1.07-.478 1.07-1.07h1.868c.74 0 1.344.602 1.344 1.344v18.902z"/><circle cx="10.852" cy="13.098" r="1.899"/><path d="M21.656 12.038H15.18c-.596 0-1.08.475-1.08 1.07 0 .597.483 1.072 1.08 1.072h6.478c.596 0 1.078-.475 1.078-1.07 0-.597-.483-1.072-1.08-1.072z"/><circle cx="10.852" cy="18.485" r="1.899"/><path d="M21.656 17.39H15.18c-.596 0-1.08.5-1.08 1.095s.483 1.092 1.08 1.092h6.478c.596 0 1.078-.496 1.078-1.092s-.483-1.094-1.08-1.094z"/><circle cx="10.852" cy="24.242" r="1.898"/><path d="M21.656 23.145H15.18c-.596 0-1.08.498-1.08 1.094s.483 1.09 1.08 1.09h6.478c.596 0 1.078-.496 1.078-1.09 0-.597-.483-1.095-1.08-1.095z"/></svg>