<?xml version="1.0" encoding="iso-8859-1"?>
<!-- Generator: Adobe Illustrator 18.1.1, SVG Export Plug-In . SVG Version: 6.00 Build 0)  -->
<svg version="1.1" id="Capa_1" xmlns="http://www.w3.org/2000/svg" xmlns:xlink="http://www.w3.org/1999/xlink" x="0px" y="0px"
	 viewBox="0 0 304.895 304.895" style="enable-background:new 0 0 304.895 304.895;" xml:space="preserve">
<g>
	<g>
		<path style="fill:#010002;" d="M152.448,93.948c-20.305,0-36.828,16.522-36.828,36.828c0,11.791,5.794,22.937,15.496,29.822
			l2.512,1.784v45.217c0,1.838,1.492,3.335,3.329,3.335h30.98c1.838,0,3.335-1.498,3.335-3.335v-45.217l2.512-1.784
			c9.696-6.88,15.49-18.032,15.49-29.822C189.269,110.471,172.747,93.948,152.448,93.948z"/>
		<path style="fill:#010002;" d="M152.448,0C68.386,0,0,68.386,0,152.448s68.386,152.448,152.448,152.448
			s152.448-68.386,152.448-152.448S236.509,0,152.448,0z M183.201,168.421v39.178c0,8.419-6.844,15.269-15.269,15.269h-30.98
			c-8.419,0-15.263-6.844-15.263-15.269v-39.178c-11.325-9.195-18.008-23.044-18.008-37.645c0-26.887,21.875-48.761,48.761-48.761
			s48.755,21.875,48.755,48.761C201.203,145.377,194.526,159.232,183.201,168.421z"/>
	</g>
</g>
</svg>
