<svg xmlns="http://www.w3.org/2000/svg" viewBox="0 0 56.374 56.374"><g fill="#010002"><circle cx="41.686" cy="29.243" r="2.792"/><path d="M36.9 28.347c-.497 0-.898.4-.898.896v5.385c0 .495.4.896.897.896h6.58c.493 0 .896-.4.896-.896 0-.495-.4-.896-.897-.896h-5.385c-.163 0-.3-.136-.3-.3v-4.19c.002-.494-.4-.895-.896-.895zM12.18 35.226h22.427c.332 0 .6-.268.6-.598V30.34c-.002-.33-.268-.6-.6-.6H14.57c-1.65 0-2.99 1.23-2.99 2.743v2.145c0 .33.268.598.6.598zM32.366 17.138c3.53 2.392 7.107 3.27 7.994 1.964.886-1.308-1.256-4.306-4.785-6.7-3.528-2.39-7.107-3.268-7.993-1.962-.887 1.308 1.256 4.307 4.784 6.698zm2.123-.345c-.193.286-.976.095-1.744-.428-.77-.52-1.238-1.177-1.044-1.462.193-.285.974-.093 1.742.43.772.52 1.24 1.176 1.045 1.46zm4.104 1.255c-.192.286-.974.094-1.743-.428-.77-.523-1.237-1.177-1.042-1.462.19-.286.973-.094 1.743.43.77.52 1.238 1.175 1.044 1.46zm-5.24-5.3c.193-.284.975-.093 1.745.43.77.52 1.235 1.176 1.044 1.462-.195.284-.977.093-1.746-.43-.77-.52-1.24-1.176-1.043-1.462zm-4.13-1.324c.193-.285.974-.094 1.744.428.77.523 1.237 1.177 1.044 1.463-.193.284-.975.093-1.744-.43-.77-.52-1.24-1.176-1.045-1.46z"/><path d="M35.892 12.204c3.004 2.128 5.23 4.68 5.073 5.836-.024.18-.03.18.067.04l.666-.94c.62-.877-1.307-3.33-4.163-5.53l2.938-3.743c.137-.176.213-.394.213-.617V1c0-.553-.447-1-1-1-.554 0-1 .447-1 1v5.904l-2.742 3.493c-.016.02-.02.043-.03.063-3.022-1.97-5.983-2.978-6.606-2.1l-.666.94c-.098.14-.1.133.06.05 1.042-.528 4.187.726 7.19 2.854zM45.495 36.49h-34.62c-.494 0-.894.4-.894.895v.988c0 1.042 2.005 1.886 4.477 1.886h9.85c.494 0 .895.398.895.895v5.293c-.454.035-.816.457-.816.985v3.44c0 .53.362.95.816.986v3.618c0 .495.4.896.896.896h3.282c.495 0 .895-.4.895-.896V41.153c0-.494.4-.895.896-.895h10.745c2.473 0 4.477-.844 4.477-1.886v-.988c0-.493-.403-.895-.897-.895z"/></g></svg>