<?xml version="1.0" encoding="iso-8859-1"?>
<!-- Generator: Adobe Illustrator 18.1.1, SVG Export Plug-In . SVG Version: 6.00 Build 0)  -->
<svg version="1.1" id="Capa_1" xmlns="http://www.w3.org/2000/svg" xmlns:xlink="http://www.w3.org/1999/xlink" x="0px" y="0px"
	 viewBox="0 0 56.374 56.374" style="enable-background:new 0 0 56.374 56.374;" xml:space="preserve">
<g>
	<g>
		<circle style="fill:#010002;" cx="41.686" cy="29.243" r="2.792"/>
		<path style="fill:#010002;" d="M36.899,28.347c-0.496,0-0.897,0.401-0.897,0.896v5.385c0,0.495,0.401,0.896,0.897,0.896h6.58
			c0.494,0,0.897-0.401,0.897-0.896c0.001-0.495-0.401-0.896-0.897-0.896h-5.384c-0.163,0-0.299-0.136-0.299-0.301v-4.188
			C37.797,28.748,37.396,28.347,36.899,28.347z"/>
		<path style="fill:#010002;" d="M12.179,35.226h22.428c0.332,0,0.599-0.268,0.599-0.598V30.34c-0.001-0.33-0.267-0.599-0.599-0.599
			H14.571c-1.652,0-2.991,1.228-2.991,2.742v2.145C11.58,34.958,11.848,35.226,12.179,35.226z"/>
		<path style="fill:#010002;" d="M32.366,17.138c3.529,2.392,7.107,3.27,7.994,1.964c0.886-1.308-1.256-4.306-4.785-6.699
			c-3.528-2.392-7.107-3.269-7.993-1.963C26.695,11.748,28.838,14.747,32.366,17.138z M34.489,16.793
			c-0.192,0.286-0.975,0.095-1.743-0.428c-0.771-0.521-1.238-1.177-1.044-1.462c0.193-0.285,0.974-0.093,1.742,0.429
			C34.216,15.854,34.685,16.509,34.489,16.793z M38.594,18.048c-0.192,0.286-0.974,0.094-1.743-0.428
			c-0.771-0.523-1.238-1.177-1.043-1.462c0.191-0.286,0.973-0.094,1.743,0.429C38.319,17.109,38.788,17.763,38.594,18.048z
			 M33.355,12.748c0.192-0.284,0.974-0.093,1.744,0.43c0.771,0.521,1.236,1.176,1.045,1.462c-0.195,0.284-0.977,0.093-1.746-0.429
			C33.627,13.689,33.159,13.034,33.355,12.748z M29.223,11.424c0.194-0.285,0.975-0.094,1.745,0.428
			c0.77,0.523,1.237,1.177,1.044,1.463c-0.193,0.284-0.975,0.093-1.744-0.43C29.497,12.364,29.029,11.709,29.223,11.424z"/>
		<path style="fill:#010002;" d="M35.892,12.204c3.004,2.128,5.229,4.679,5.073,5.836c-0.024,0.179-0.03,0.179,0.067,0.04
			l0.666-0.939c0.621-0.878-1.307-3.332-4.163-5.53l2.938-3.744c0.137-0.176,0.213-0.394,0.213-0.617V1c0-0.553-0.447-1-1-1
			c-0.554,0-1,0.447-1,1v5.904l-2.742,3.493c-0.016,0.02-0.019,0.043-0.031,0.063c-3.021-1.97-5.982-2.978-6.605-2.099L28.642,9.3
			c-0.098,0.139-0.1,0.133,0.061,0.05C29.744,8.822,32.889,10.076,35.892,12.204z"/>
		<path style="fill:#010002;" d="M45.495,36.489H10.876c-0.495,0-0.895,0.4-0.895,0.896c0,0.287,0,0.626,0,0.988
			c0,1.042,2.004,1.886,4.476,1.886h9.849c0.495,0,0.896,0.399,0.896,0.896v5.293c-0.454,0.035-0.816,0.457-0.816,0.985v3.441
			c0,0.528,0.362,0.95,0.816,0.985v3.619c0,0.495,0.4,0.896,0.896,0.896h3.282c0.495,0,0.895-0.4,0.895-0.896V41.153
			c0-0.494,0.4-0.895,0.896-0.895h10.744c2.473,0,4.477-0.844,4.477-1.886v-0.988C46.392,36.891,45.989,36.489,45.495,36.489z"/>
	</g>
</g>
</svg>
